# xmcd
#
# Track frame offsets: 
#        150
#        12932
#        25991
#        38934
#        51277
#        63166
#        76729
#        90422
#        107205
#        120168
#        132720
#        144678
#        158774
#        172211
#        184380
#        200410
#        215452
#        229326
#        242573
#        255531
#        270376
#        284201
#        298852
#        311634
#
# Disc length: 4319 seconds
#
# Revision: 0
# Processed by: cddbd v1.5PL3 Copyright (c) Steve Scherf et al.
# Submitted via: ExactAudioCopy v0.95a4
#
DISCID=6810dd18
DTITLE=Bertha 'Chippie' Hill - Complete Recorded Works 1925 - 1929
DYEAR=1900
DGENRE=Blues
TTITLE0=Low Land Blues
TTITLE1=Kid Man Blues
TTITLE2=Lonesome, All Alone and Blue
TTITLE3=Trouble In Mind
TTITLE4=Georgia Man
TTITLE5=Leavenworth Blues
TTITLE6=Panama Limited Blues
TTITLE7=Street Walker Blues
TTITLE8=Pleadin' For The Blues
TTITLE9=Pratt City Blues
TTITLE10=Mess, Katie, Mess
TTITLE11=Lovesick Blues
TTITLE12=Lonesome Weary Blues
TTITLE13=Do Dirty Blues
TTITLE14=Sport Model Mama
TTITLE15=Some Cold Rainy Day
TTITLE16=Weary Money Blues
TTITLE17=Hard Time Blues
TTITLE18=Christmas Man Blues
TTITLE19=Trouble In Mind
TTITLE20=Hangman Blues
TTITLE21=Non-Skid Tread
TTITLE22=I Ain't Gonna Do It No More
TTITLE23=Pratt City Blues
EXTD=
EXTT0=
EXTT1=
EXTT2=
EXTT3=
EXTT4=
EXTT5=
EXTT6=
EXTT7=
EXTT8=
EXTT9=
EXTT10=
EXTT11=
EXTT12=
EXTT13=
EXTT14=
EXTT15=
EXTT16=
EXTT17=
EXTT18=
EXTT19=
EXTT20=
EXTT21=
EXTT22=
EXTT23=
PLAYORDER=
